<svg viewBox="0 0 336 252" fill="none" xmlns="http://www.w3.org/2000/svg"><path d="M286.275 176.904c-3.36-1.344-6.552-3.024-9.744-4.704-5.544-3.024-10.08-5.544-13.104-11.088-3.192-5.712-6.888-9.408-12.432-13.104-4.872-3.192-10.08-6.048-13.608-10.92" stroke="#1D1D1B" stroke-width="3.024" stroke-miterlimit="10" stroke-linecap="round" stroke-linejoin="round"/><path d="M304.753 246.96c-12.264-7.728-29.232-23.52-40.824-32.256 8.232-14.448 16.8-28.56 25.368-42.672 13.104 6.384 29.904 14.448 43.008 20.832l-9.408 16.632 4.536 2.52-22.68 34.944z" fill="#D6D7D8" stroke="#D6D7D8" stroke-width="3.024" stroke-miterlimit="10" stroke-linecap="round" stroke-linejoin="round"/><path d="M171.861 86.52c-13.608-5.712-26.544-12.096-39.144-19.824-7.224-4.368-13.944-10.752-15.792-19.488-1.68-8.064 2.352-15.624 10.08-18.48 12.264-4.536 21.168 6.72 26.376 16.128 7.224 13.104 11.592 27.216 17.64 40.824" stroke="#43A7F5" stroke-width="5.04" stroke-miterlimit="10" stroke-linecap="round" stroke-linejoin="round"/><path d="M170.855 86.183c5.04-13.44 11.424-30.576 21.168-41.496 6.384-7.055 19.992-14.783 28.056-5.375 7.056 8.232 1.176 18.983-5.544 25.2-3.528 3.192-7.56 5.712-11.592 8.231-9.408 5.544-19.152 10.753-29.4 14.28" stroke="#43A7F5" stroke-width="5.04" stroke-miterlimit="10" stroke-linecap="round" stroke-linejoin="round"/><path d="M274.007 69.72V57.96M274.007 94.752V82.32M280.395 76.27h12.096M255.527 76.27h12.6M301.896 35.448c.336 1.008.168 2.016-.84 3.192-2.184 2.688-6.72.672-5.88-2.856 1.176-4.2 5.88-3.024 6.72-.336z" stroke="#1D1D1B" stroke-width="3.024" stroke-miterlimit="10" stroke-linecap="round" stroke-linejoin="round"/><path d="M91.558 52.92c-.169.336-.505.672-1.009 1.008-2.184.84-3.864-1.512-2.016-3.192 2.016-1.68 3.864.672 3.025 2.184z" fill="#1D1D1B" stroke="#1D1D1B" stroke-width="3.024" stroke-miterlimit="10" stroke-linecap="round" stroke-linejoin="round"/><path d="M327.265 212.016c-11.424-6.72-47.88-24.696-53.256-28.56-4.704-3.192-9.576-5.544-13.44-10.08-2.856-3.528-4.704-7.896-8.064-10.92-3.192-2.856-6.72-5.04-10.248-7.224-4.368-2.856-8.904-5.712-13.272-8.736-1.512-1.008-4.032-3.024-5.544-1.344-3.192 3.36.168 7.392 2.856 9.744 4.2 3.696 9.24 6.384 12.6 10.752M104.997 164.976c5.376-3.36 11.088-6.216 16.296-9.912 2.184-1.512 7.056-6.888 4.032-9.576-.672-.504-1.512-.504-2.352-.504-1.176.168-1.68.336-2.688.84-7.728 4.536-15.624 8.736-23.856 12.096-6.049 2.52-9.24 7.896-13.273 12.768-4.368 5.376-11.424 9.408-17.303 12.6M63.166 170.184c4.704-2.184 9.912-4.368 13.776-7.728 4.368-3.864 7.224-9.744 11.76-13.272 4.872-3.696 14.448-6.552 20.328-8.568" stroke="#1D1D1B" stroke-width="3.024" stroke-miterlimit="10" stroke-linecap="round" stroke-linejoin="round"/><path d="M59.639 171.192l21 51.072M31.081 248.64l49.56-26.376M20.499 229.32l52.248-26.376M10.081 192.696l49.56-21.504M62.161 232.176l-22.176-51.072M18.817 188.832l23.688 53.76" stroke="#43A7F5" stroke-width="3.024" stroke-miterlimit="10" stroke-linecap="round" stroke-linejoin="round"/><path d="M68.376 215.208c-5.208-1.344-6.552 8.4-.84 7.56 3.864-.504 4.872-6.72.84-7.56zM189.837 87.696h53.928v30.408H102.309V87.696h54.6M113.401 148.512l.336-30.408" stroke="#1D1D1B" stroke-width="3.024" stroke-miterlimit="10" stroke-linecap="round" stroke-linejoin="round"/><path d="M179.257 197.905l-6.552-112.056-3.36 112.392 9.912-.336z" fill="#43A7F5" stroke="#43A7F5" stroke-width="3.024" stroke-miterlimit="10" stroke-linecap="round" stroke-linejoin="round"/><path d="M261.24 32.423h.336c-3.528-1.176-5.88-2.016-7.56-5.544-1.512-2.856-2.184-5.376-2.352-8.568-1.176 6.384-6.216 11.928-12.6 13.608a16.447 16.447 0 018.4 14.784c1.344-3.36 2.352-6.047 5.04-8.736 2.016-2.015 5.712-5.04 8.736-5.544zM70.224 76.272c-2.688-.168-5.376-1.512-7.056-3.696-1.68-2.184-2.688-5.544-2.52-8.232-1.008 5.712-4.368 10.92-9.24 14.28 2.52.168 4.704 1.848 6.384 3.864 1.68 2.016 2.52 4.368 3.528 6.888 2.016-4.368 5.544-9.576 8.904-13.104zM131.04 199.752h87.864M104.834 165.48c7.896-1.008 15.792-3.192 23.016-6.384 3.864-1.68 7.392-4.032 10.92-6.384 3.024-2.016 6.888-5.376 10.584-5.544 1.344 0 3.192 1.176 3.192 2.688 0 1.68-2.352 3.696-3.36 4.704-8.904 8.4-20.16 13.608-30.744 19.656" stroke="#1D1D1B" stroke-width="3.024" stroke-miterlimit="10" stroke-linecap="round" stroke-linejoin="round"/><path d="M152.546 151.2a11.263 11.263 0 013.36 0c1.176.168 2.184 1.008 2.52 2.016.84 2.184-2.688 5.208-4.032 6.552-8.568 8.736-19.656 15.96-30.912 20.664M158.256 164.976c-7.896 10.248-20.496 16.968-32.256 21.336M149.016 180.768c-5.208 4.536-11.256 8.904-17.808 11.592-4.2 1.68-8.568 3.36-13.104 4.368-13.608 2.688-30.408 6.216-42.336 13.944M238.897 165.984c-7.392-4.032-14.616-8.4-21.168-13.608-3.36-2.52-6.384-5.376-9.408-8.4-1.848-1.848-5.712-4.368-8.568-3.192-3.528 1.344.168 6.048 1.512 7.56 7.224 7.896 15.792 14.448 24.528 20.664" stroke="#1D1D1B" stroke-width="3.024" stroke-miterlimit="10" stroke-linecap="round" stroke-linejoin="round"/><path d="M222.431 166.488c-5.712-3.528-11.256-7.56-16.632-11.592-3.696-2.856-7.224-6.216-11.592-7.728-3.024-1.008-6.888 1.344-4.872 4.536 1.008 1.68 2.52 2.856 3.864 4.2 3.024 2.856 6.552 4.872 9.744 7.392 5.712 4.2 11.592 8.232 17.808 11.592M218.232 181.44c-7.056-2.016-14.28-5.04-20.496-9.072-2.52-1.68-5.208-3.192-7.56-5.04-1.68-1.344-3.528-2.184-4.368-4.2-.84-2.016.168-3.864 2.52-4.2 2.016-.336 4.2 1.008 5.88 2.184 7.392 5.04 18.648 10.416 26.712 13.944M265.107 209.16c-6.048-4.368-11.424-7.728-18.648-9.912-8.904-2.688-17.808-4.872-26.712-7.56-6.216-1.848-12.768-2.856-19.152-4.536-2.856-.672-8.904-2.352-9.744-5.544-1.344-4.704 6.048-2.52 8.232-1.848 6.384 1.848 12.6 2.184 19.32 2.352M13.608 208.656l52.248-25.368M268.634 205.128c3.192 2.352 6.216 4.536 9.408 6.888M274.174 196.224l11.088 6.552M283.416 180.432c3.024 1.176 5.88 2.52 8.904 3.696M231.839 119.28v28.56" stroke="#1D1D1B" stroke-width="3.024" stroke-miterlimit="10" stroke-linecap="round" stroke-linejoin="round"/><path d="M289.8 131.88c-.168.336-.504.672-1.008 1.008-2.184.84-3.864-1.512-2.016-3.192 2.016-1.68 3.864.672 3.024 2.184z" fill="#1D1D1B" stroke="#1D1D1B" stroke-width="3.024" stroke-miterlimit="10" stroke-linecap="round" stroke-linejoin="round"/><path d="M43.171 35.448c.336 1.008.168 2.016-.84 3.192-2.184 2.688-6.72.672-5.88-2.856 1.176-4.2 5.88-3.024 6.72-.336z" stroke="#1D1D1B" stroke-width="3.024" stroke-miterlimit="10" stroke-linecap="round" stroke-linejoin="round"/></svg>