<svg viewBox="0 0 208 160" fill="none" xmlns="http://www.w3.org/2000/svg"><g clip-path="url(#clip0)"><path d="M125.669 100.143c-9.086-2.321-18.673.145-27.165 3.534-9.864 3.916-18.857 9.758-28.22 14.795L67.174 101c0-1.095-3.047-2.519-3.864-2.835a12.251 12.251 0 00-4.892-.752c-4.286.145-7.358 2.4-10.55 4.972.976-1.583 1.319-3.284 2.334-4.814a6.898 6.898 0 00-2.083 1.319 57.41 57.41 0 00-5.275 6.593c-2.637 3.482-5.143 7.029-7.648 10.55-5.829 8.268-11.525 16.628-17.143 25.054-3.376 5.025-6.923 10.022-10.022 15.231-.079.976 4.286 3.02 4.233 3.956H145.45c.883-18.092 3.705-54.144-19.78-60.131zM66.327 25.427c-2.084-.528-4.602 4.153-4.747 5.696a1.319 1.319 0 00.343 1.24c1.463 1.213 7.766-6.093 4.404-6.936z" fill="#1D1D1B"/><path d="M66.564 16.815a8.519 8.519 0 019.231 5.183M46.76 45.787c2.637 2.637 7.82 2.637 11.208 1.754M61.568 66.041l8.717 52.43" stroke="#1D1D1B" stroke-width="1.978" stroke-linecap="round" stroke-linejoin="round"/><path d="M100.217 103.321a43.615 43.615 0 0121.178-3.864 28.185 28.185 0 0110.246 3.046c4.576 2.321 9.073-1.055 10.998-5.13 1.78-3.784.633-8.808-1.49-12.21a11.629 11.629 0 00-5.407-4.734l.475-.528a21.438 21.438 0 00.237-20.452 21.78 21.78 0 00-6.197-7.174c-2.15-1.569-5.75-3.534-8.44-3.059a27.124 27.124 0 00-2.743-21.995c-2.914-4.668-6.593-7.266-11.34-9.89-6.026-3.363-13.28-6.673-20.11-7.991-1.134-.225-12.132-1.688-12.33-.475-.843 5.208 1.174 10.272 3.957 14.505a19.7 19.7 0 013.151 10.035c.119 3.692-.989 7.015-1.609 10.55l.159-.12c3.244-2.333 8.123-3.56 11.01.08 5.42 6.844-3.955 12.33-5.38 18.62a16.458 16.458 0 00-.342 6.804c.395 1.951 1.318 4.536 3.323 5.354a16.654 16.654 0 00-3.785 2.637 15.496 15.496 0 00-3.864 5.275 17.512 17.512 0 00-.91 10.997 14.718 14.718 0 007.912 9.679" fill="#43A7F5"/><path d="M79.673 32.508l15.006.118v-4.641a312.582 312.582 0 00-15.323-.225M90.577 54.2c-2.558 4.51-5.38 9.877-4.325 15.231a9.007 9.007 0 0011.67 6.593c1.2-.343 2.492-1.16 2.479-2.4a2.109 2.109 0 00-1.108-1.635 4.167 4.167 0 00-2.07-.488c-4.26 0-8.453 3.152-11.446 5.908a15.493 15.493 0 00-3.864 5.275 17.511 17.511 0 00-.91 10.997 14.717 14.717 0 007.912 9.679M64.034 80.903l-19.24 23.618c6.45-3.864 15.232-11.05 21.89-4.326" stroke="#1D1D1B" stroke-width="1.978" stroke-linecap="round" stroke-linejoin="round"/><path d="M42.263 119.184a90.992 90.992 0 00-9.085 35.881M112.27 98.362c-7.028 2.07-12.83 5.195-17.617 10.76a55.392 55.392 0 00-9.23 15.903 86.159 86.159 0 00-5.46 36.29" stroke="#43A7F5" stroke-width="1.978" stroke-linecap="round" stroke-linejoin="round"/><path d="M40.126 14.124l-.198.277c0-1.754.462-3.481-.131-5.17a5.381 5.381 0 00-2.822-3.428 7.991 7.991 0 008.149-4.325c-1.108 2.993.277 6.593 3.402 7.398a9.97 9.97 0 00-4.338 1.226 14.916 14.916 0 00-4.062 4.022v0zM143.247 66.49a55.102 55.102 0 0113.187-16.206 30.865 30.865 0 016.593-4.444c3.851-1.82 8.492-1.068 9.508 3.35 1.147 4.958-1.319 10.153-3.495 14.505a62.24 62.24 0 01-12.237 17.525 7.914 7.914 0 01-3.679 2.308 2.994 2.994 0 01-3.534-1.833 3.813 3.813 0 01.923-3.033c2.637-3.666 7.015-5.736 11.42-6.725 2.255-.515 4.905-.686 6.593.883 5.182 4.787 2.163 12.184-.87 17.143-4.444 7.358-9.495 14.505-16.075 19.978a46.835 46.835 0 019.692-3.007 56.71 56.71 0 018.585-.62c4.787 0 11.644 1.319 14.94 5.156 4.049 4.787 4.207 11.182 2.387 17.881M79.344 8.534c-5.762-.185-12 2.03-15.573 6.751-2.281 2.994-3.719 6.594-6.053 9.613-3.178 4.075-8.096 5.684-12.738 7.016 2.202 1.86 3.152 3.336 5.354 5.195.646.541-3.1 7.332-3.442 8.031-1.82 3.798-4.14 8.875-2.637 13.187 1.503 4.312 5.696 6.277 10.087 6.844 5.143.672 10.273 1.463 15.442 1.978M76.547 102.49l-6.264 15.982M88.89 103.334l-12.343-.844M80.107 43.901c3.112-3.099 11.077-4.035 13.002 1.029 3.284 8.598-7.345 13.384-14.228 12.553" stroke="#1D1D1B" stroke-width="1.978" stroke-linecap="round" stroke-linejoin="round"/><path d="M154.679 126.383l11.077 11.868M176.82 126.383l-11.063 11.868M176.86 126.383l11.064 11.868M199 126.383l-11.077 11.868M154.322 126.383l-5.539 5.934M199.001 126.383l-.146 31.648" stroke="#43A7F5" stroke-width="1.978" stroke-linecap="round" stroke-linejoin="round"/></g><defs><clipPath id="clip0"><path fill="#fff" d="M0 0h208v160H0z"/></clipPath></defs></svg>
