<svg viewBox="0 0 208 160" fill="none" xmlns="http://www.w3.org/2000/svg"><g clip-path="url(#clip0)"><path d="M84.919 154.86l-27.81-59.175-7.058-.166 31.84-12.834h.192l.693 5.865 17.248 36.472 17.723-43.851 31.043 8.303c8.393 2.259 20.085 4.774 25.808 11.832 5.134 6.417 6.07 15.747 6.25 23.627.231 11.319.411 22.65.616 33.982l.128-1.707" fill="#43A7F5"/><path d="M107.286 104.528a10.028 10.028 0 00-2.053 4.145c-.36 3.478 3.85 2.964 5.505 1.411a35.91 35.91 0 005.313-6.416l.154.102c1.283 6.905 3.94 14.451 8.983 19.494a18.61 18.61 0 0011.55 5.531c3.85.219 8.855-.513 11.063-4.158v-.539l-16.902-39.116c-7.905-2.271-11.434-3.157-19.468-4.902-2.13 2.438-4.107 4.44-6.057 7.02.975 2.99 1.591 5.942 2.566 8.983" fill="#fff"/><path d="M117.4 35.561c2.13-7.7 1.681-15.4-3.683-21.624a30.482 30.482 0 00-17.159-9.766 39.783 39.783 0 00-21.65 2.246 22.317 22.317 0 00-11.383 10.267c2.323 1.026 4.736.757 7.277.603 6.802-.424 20.315-2.31 20.315-2.31l4.44 14.335s5.301-.308 7.11 2.13c2.374 3.195.424 7.803.424 11.55 1.514 0 3.015.192 4.53.18a10.497 10.497 0 018.316-7.238" fill="#D6D7D8"/><path d="M108.211 41.426c1.617-2.94 4.633-6.237 8.431-5.403 4.98 1.09 5.852 5.493 4.248 9.779-1.873 5.056-5.749 9.869-11.704 8.675M77.438 28.619c3.85-4.235 10.972-5.134 14.976-.873M74.588 61.497c3.657.847 8.637.398 11.78-1.887" stroke="#1D1D1B" stroke-width="1.925" stroke-linecap="round" stroke-linejoin="round"/><path d="M82.235 33.136c-1.527 1.424.963 5.967 2.144 6.904a1.361 1.361 0 001.193.372c1.771-.551-.873-9.612-3.337-7.276zM64.269 33.88c-1.528 1.424.962 5.967 2.143 6.904a1.412 1.412 0 001.193.385c1.771-.552-.872-9.574-3.336-7.29z" fill="#1D1D1B"/><path d="M81.018 73.78l1.758 14.77M128.167 95.673a414.14 414.14 0 00-14.592-1.283c-1.873 3.105-3.85 6.147-5.698 9.24-.911 1.488-2.451 3.234-2.566 5.03-.36 3.478 3.85 2.965 5.505 1.412a45.466 45.466 0 006.956-8.881c3.85.424 7.572.988 11.422 1.142" stroke="#1D1D1B" stroke-width="1.925" stroke-linecap="round" stroke-linejoin="round"/><path d="M128.501 90.5a379.224 379.224 0 00-17.646-.205 105.86 105.86 0 00-5.955 12.834" stroke="#1D1D1B" stroke-width="1.925" stroke-linecap="round" stroke-linejoin="round"/><path d="M130.9 84.982c-7.905-2.271-11.434-3.157-19.468-4.902-2.13 2.438-4.106 4.44-6.057 7.02.975 2.99 1.591 5.942 2.567 8.983M130.912 84.982l16.889 39.104M125.959 106.734a28.014 28.014 0 007.199 13.052c3.286 3.349 9.728 6.032 14.643 4.299" stroke="#1D1D1B" stroke-width="1.925" stroke-linecap="round" stroke-linejoin="round"/><path d="M116.219 103.758c1.283 6.904 3.94 14.45 8.983 19.494a18.608 18.608 0 0011.55 5.531c3.85.218 8.855-.514 11.062-4.158" stroke="#1D1D1B" stroke-width="1.925" stroke-linecap="round" stroke-linejoin="round"/><path d="M111.92 109.52l-4.71 16.247-7.187-2.079 3.234-11.191 1.053-3.619a314.533 314.533 0 011.039-3.465s-.128.95-.167 1.399c0 .642-.128 1.283-.128 1.899a3.25 3.25 0 00.334 1.823 2.178 2.178 0 001.617.872 5.804 5.804 0 003.362-.616 19.895 19.895 0 001.553-1.27z" fill="#1D1D1B" stroke="#1D1D1B" stroke-width="1.925" stroke-linecap="round" stroke-linejoin="round"/><path d="M112.574 80.324l5.044-17.427 7.186 2.078-4.928 17.03" fill="#1D1D1B"/><path d="M112.574 80.324l5.044-17.427 7.186 2.078-4.928 17.03M100.023 123.739l7.187 2.092-6.417 8.714-.77-10.806zM147.801 124.085l16.041 33.546M10.69 94.543l46.419 1.142M84.92 154.86L57.11 95.685M10.69 94.543l11.82 20.328M10.678 94.094c11.14-8.277 20.2-18.377 23.664-32.031M24.255 136.957c4.004-7.469 8.573-17.273 13.193-24.383.744-1.155 2.836-3.773 4.478-2.656 3.003 2.053-1.168 9.868-2.194 12.191-2.4 5.442-5.223 10.729-7.803 16.106" stroke="#1D1D1B" stroke-width="1.925" stroke-linecap="round" stroke-linejoin="round"/><path d="M19.7 132.53c2.746-4.826 6.416-11.191 8.983-16.068 1.95-3.593 3.747-7.417 5.967-10.857.911-1.424 2.746-4.145 4.376-1.861 1.284 1.72 1.001 4.235.437 6.558" stroke="#1D1D1B" stroke-width="1.925" stroke-linecap="round" stroke-linejoin="round"/><path d="M28.786 100.883c-3.85 9.83-8.252 19.327-12.205 29.08 8.47 6.417 14.9 15.49 21.33 23.973M15.4 102.885c0 8.893.5 17.774.758 26.629M139.357 26.475l50.577-.283M129.129 39.334h63.153M124.805 52.18h69.839M135.174 64.385h57.108M135.174 76.191h43.428M103.527 65.027l.501-.411c-7.996 4.145-21.137 12.833-30.197 7.443-5.39-3.234-6.417-12.936-7.88-18.557-1.874-7.353-3.272-14.81-4.492-22.291a25.346 25.346 0 014.146-17.967M118.695 135.815l9.805 24.82M111.213 17.107l3.657-3.4M111.175 9.176l-2.978 5.133" stroke="#1D1D1B" stroke-width="1.925" stroke-linecap="round" stroke-linejoin="round"/><path d="M57.57 37.358a7.444 7.444 0 006.52 5.98 7.25 7.25 0 002.168-.217 7.56 7.56 0 005.134-5.686" stroke="#43A7F5" stroke-width="1.925" stroke-linecap="round" stroke-linejoin="round"/><path d="M71.97 39.103a119.345 119.345 0 01-1.63 13.078c2.644-.758 5.531-1.078 8.175-1.835M61.6 26.514c4.03-.36 9.265 1.874 10.022 6.353.2 1.153.317 2.32.347 3.49" stroke="#1D1D1B" stroke-width="1.925" stroke-linecap="round" stroke-linejoin="round"/><path d="M77.578 36.37a7.585 7.585 0 007.777 6.34c4.569 0 7.315-2.837 8.11-7.2M71.662 36.909c1.95-1.515 3.4-1.284 5.57-.59M93.465 35.51l13.744 1.848" stroke="#43A7F5" stroke-width="1.925" stroke-linecap="round" stroke-linejoin="round"/></g><defs><clipPath id="clip0"><path fill="#fff" d="M0 0h208v160H0z"/></clipPath></defs></svg>
