<svg viewBox="0 0 208 160" fill="none" xmlns="http://www.w3.org/2000/svg"><g clip-path="url(#clip0)"><path d="M92.87 97.68c-11.21 1.37-23.31.96-33.73 5.89-5.27 2.5-9.72 6.55-13.15 11.22-5.7 7.76-7.28 17.16-8.54 26.46-1.45 10.75-3.36 21.32-4.02 32.17l.4-5.03c-4.17-20.92-7.45-42.05-11.27-62.98-2.26-12.4-5-26.72 7.94-34.44 7.61-4.54 19.02-3.69 27.61-3.47 4.95.12 9.9.25 14.85.37h.01c-1.32 7.51-3.82 17.25 2.18 23.22 3.75 3.74 11.72 4.59 16.13 1.65 2.49-1.66 2.79-8.58 2.79-8.58l-1.2 13.52z" fill="#D6D7D8"/><path d="M151.84 27.93h25.27M192.54 67.31l-15.43-39.38M149.47 67.31h43.07M166.47 67.31V90.2" stroke="#1D1D1B" stroke-width="1.93" stroke-miterlimit="10" stroke-linecap="round" stroke-linejoin="round"/><path d="M159.3 138.28c-2.55-5.64-4.63-10.47-5.1-16.75-.49-6.54.69-14.17 2.38-20.5l.03-.14a44.17 44.17 0 00-11.33-2.03l-2.19 3.95c.02 0 .03-.01.05-.01 2.88-.6 2.58 2.46 1.91 4.17-1.98 5.03-4.11 10.04-6.88 14.7-2.8 4.72-6.18 8.02-10.09 11.65-5.11 4.74-18.51 31.19-21.45 38.49 8.2 1.31 17.47.3 25.79.36 8.72.06 17.43.11 26.15.23.01 0 .12.01.12 0 1.47-5.37 3.93-10.63 4.6-16.17.68-5.55-1.71-12.91-3.99-17.95zM71.69 101.03c5.66 9.22 14.71 16.02 24.82 19.67 2.58.93 10.95 2.78 10.95 2.78-2.44 3.62-39.67 47.48-39.67 47.48.38-13.27-.14-31.07-2.16-44.21-1.16-7.52-3.12-15.92-6.18-22.94l-.3-.24c3.78-1.79 7.77-2.87 11.87-3.6l.67 1.06z" fill="#1D1D1B" stroke="#1D1D1B" stroke-width="1.93" stroke-miterlimit="10" stroke-linecap="round" stroke-linejoin="round"/><path d="M135.69 77.55c.03.01.05.01.08.02.21.06.42.27.62.55.55.8 1.82.51 1.95-.46.58-4.33.77-8.73.81-13.07.07-8.19.15-16.65-.31-24.97-.45-8.18-1.8-18.61-8.29-26.63-5.32-6.57-13.37-10.11-21.59-9.47-7.01.55-13.74 3.35-18.45 7.69-5.79 5.34-9.66 13.05-11.83 23.57-1.9 9.18-3.44 17.87-4.59 25.83-.28 1.94-.58 3.89-.89 5.83-1.2 7.67-4.44 18.29 1.94 24.65 3.75 3.74 11.72 4.59 16.13 1.65 2.49-1.66 3.45-4.62 3.69-7.48.38-4.62.46-9.3.73-13.93.01-.26-.07-.51-.23-.71-2.53-3.24-4.18-6.87-4.75-10.51-.04-.27-.19-.52-.42-.68-.22-.16-.5-.23-.78-.19l-.07.01c-4.48.54-8.85-4.33-9.46-8.72-.32-2.3 0-5.45 1.47-6.92.69-.69 1.57-.95 2.71-.79 2.11.29 3.65 2.89 4.81 4.84.13.22.34.39.59.46l.21.06c.45.14.94-.04 1.19-.45 1.77-2.85 3.28-6.21 4.5-9.99 2.83-.06 5.35-1.94 7.39-5.5.88 1 2.36 1.52 3.8 1.24 3.8-.74 5.67-4.67 6.67-6.78.36-.77.7-1.55 1.02-2.35.2 2.05 1.22 5.65 3.89 6.76 1.55.64 3.02.62 4.37-.05 3.55-1.77 5.26-7.58 6.3-11.55 2.33 4.62 3.3 10.12 2.88 16.39l-.27 4.3c-.32 5.03-.64 10.22-1.19 15.3-.09.85-.17 1.72-.26 2.6-.51 5.42-1.03 11.03-4.19 15.14-.03.04-.06.09-.09.13l-.63 1.15c-.21.38-.16.85.12 1.18.28.33.74.45 1.14.3.13-.05.25-.06.38-.03.34.07.63.69.77 1.66.07.51.51.89 1.03.89s.95-.38 1.03-.89l.12-.8c.54-.65 1.3-.97 1.73-.9.1.02.42.07.61.78.2.71.21 1.4.22 2.16 0 .37.57.87.46 1.17.25-.68.54-1.36 1.04-1.88.49-.46 1.22-.77 1.89-.61z" fill="#43A7F5"/><path d="M128.77 17.14c3.49 5.66 4.49 12.32 4.06 18.84-.43 6.55-.76 13.11-1.47 19.64-.66 6.06-.78 13.21-4.65 18.27M89.68 60.28c.99 6.25 4.82 11.85 9.69 15.77 4.98 4.01 12.94 7.74 19.37 5.58M89.57 60.3c-5.25.63-9.95-4.81-10.62-9.61-.51-3.67.43-9.57 5.36-8.89 2.64.36 4.34 3.27 5.57 5.34M105.64 18.34c-.5 4.03-1.04 7.82-2.78 11.61-1.44 3.14-3.99 7.02-7.91 6.76M116.54 14.72c-1.26 3.84-2.42 7.9-4.16 11.55-1.22 2.57-2.87 5.61-5.93 6.21-1.3.25-2.82-.39-3.26-1.64" stroke="#1D1D1B" stroke-width="1.93" stroke-miterlimit="10" stroke-linecap="round" stroke-linejoin="round"/><path d="M116.31 15.43c-.45 2.88-1.18 5.8-.94 8.74.17 2.07 1.16 5.13 3.26 6 6.4 2.66 8.759-9.16 9.799-12.95" stroke="#1D1D1B" stroke-width="1.93" stroke-miterlimit="10" stroke-linecap="round" stroke-linejoin="round"/><path d="M109.87 56.52l5.46 2.07c-.83-7.36-3.27-16.51 1.53-22.99 2.72-3.67 7.16-5.79 11.74-5.09M107.46 67.18c2.72 2.1 6.41 2.59 9.67 1.57M123.43 78.42c.55-1.33 1.82-3.81 3.58-3.45 2.74.56 1.43 8.21 1.17 10.09-.89 6.43-1.98 12.89-2.78 19.32" stroke="#1D1D1B" stroke-width="1.93" stroke-miterlimit="10" stroke-linecap="round" stroke-linejoin="round"/><path d="M128.76 76.44c1.15-1.62 3.66-2.43 4.34.03.57 2.06-.01 4.4-.13 6.46-.15 2.64-.61 5.3-.95 7.93-.63 4.85-1.15 9.78-1.91 14.61M136.83 82.84c-.48 5.72-.88 11.48-1.67 17.17-.7 4.99-1.25 10.2-2.42 15.14" stroke="#1D1D1B" stroke-width="1.93" stroke-miterlimit="10" stroke-linecap="round" stroke-linejoin="round"/><path d="M127.45 118.93c2.16-1.54 4.84-2.79 6.81-4.53 1.52-1.33 2.77-3.55 3.7-5.34 1.16-2.22 2.37-5.69 5.18-6.27 2.88-.6 2.58 2.46 1.91 4.17-3.89 9.9-8.66 21.53-18.09 27.35M67.78 170.96c9.66-11.31 19.97-21.6 29.32-33.25 4.6-5.73 9.28-11.22 12.25-18.04 2.6-5.97 3.84-12.96 5.46-19.28.97-3.79 1.9-7.58 2.76-11.4.57-2.5.99-5.02 1.8-7.47.36-1.08.79-2.74 1.72-3.5 1.78-1.43 2.86.71 2.83 2.38-.09 4.38-1.04 8.68-1.84 12.97-.76 4.1-1.26 8.23-2.12 12.36 2.6 7.58 2.51 16.11 0 23.72M145.28 98.86c10.41.53 20.11 4.48 27.56 11.77 11.47 11.23 12.74 30.82 15.91 45.64M33.43 173.42c.66-10.85 2.58-21.42 4.03-32.16 1.26-9.3 2.84-18.7 8.54-26.46 3.43-4.67 7.88-8.73 13.15-11.22 10.43-4.94 22.53-4.52 33.73-5.89" stroke="#1D1D1B" stroke-width="1.93" stroke-miterlimit="10" stroke-linecap="round" stroke-linejoin="round"/><path d="M102.024 149.395l-1.027-2.999-3 1.027 1.028 2.999 2.999-1.027zM94.81 144.841l-.302-3.155-3.156.302.303 3.156 3.156-.303zM108.532 153.041l-1.027-2.999-2.999 1.027 1.027 2.999 2.999-1.027zM114.911 155.86l-1.277-2.902-2.902 1.277 1.277 2.902 2.902-1.277z" fill="#1D1D1B" stroke="#1D1D1B" stroke-width="1.93" stroke-miterlimit="10" stroke-linecap="round" stroke-linejoin="round"/><path d="M156.58 101.03c-1.69 6.33-2.87 13.96-2.38 20.5.47 6.28 2.55 11.11 5.1 16.75 4.72 10.42 4.55 23.41.22 33.99" stroke="#1D1D1B" stroke-width="1.93" stroke-miterlimit="10" stroke-linecap="round" stroke-linejoin="round"/><path d="M87.79 58.59a1.89 1.89 0 100-3.78 1.89 1.89 0 000 3.78z" fill="#1D1D1B"/><path d="M55.07 27.9c1.91 8.45 8.5 14.29 16.15 17.65" stroke="#43A7F5" stroke-width="1.93" stroke-miterlimit="10" stroke-linecap="round" stroke-linejoin="round"/><path d="M102.71 38.9c-1.79.81-.94 5.61-.16 6.79.23.36.56.69.95.69 1.74.04 2.11-8.78-.79-7.48zM122.9 38.9c-1.79.81-.94 5.61-.16 6.79.23.36.56.69.95.69 1.73.04 2.1-8.78-.79-7.48z" fill="#1D1D1B"/></g><defs><clipPath id="clip0"><path fill="#fff" d="M0 0h208v160H0z"/></clipPath></defs></svg>
